<?xml version="1.0" encoding="UTF-8"?>
<svg xmlns="http://www.w3.org/2000/svg" xmlns:xlink="http://www.w3.org/1999/xlink" width="20px" height="20px" viewBox="0 0 20 20" version="1.1">
  <title>智能情报@3x</title>
  <g id="新增发票20220831" stroke="none" stroke-width="1" fill="none" fill-rule="evenodd">
    <g id="开票记录列表" transform="translate(-20.000000, -185.000000)" fill-rule="nonzero">
      <g id="智能拓客" transform="translate(8.000000, 171.000000)">
        <g id="智能情报" transform="translate(12.000000, 14.000000)">
          <rect id="矩形" fill="#111A34" opacity="0" x="0" y="0" width="20" height="20"></rect>
          <g id="编组" transform="translate(2.000000, 1.000000)" fill="#327BF9">
            <path d="M15.0824602,3.75877646 L8.92676933,0.245683176 C8.35283389,-0.081894392 7.64224366,-0.081894392 7.06830822,0.245683176 L0.916925026,3.75877646 C0.348244995,4.08459527 -0.000708031178,4.67989814 1.07868391e-06,5.32301799 L1.07868391e-06,12.779416 C1.07868391e-06,13.4316333 0.358155924,14.0334493 0.937232714,14.3544578 L7.09107745,17.7655484 C7.65439776,18.0781505 8.34498749,18.0781505 8.9083078,17.7655484 L15.0621525,14.3544578 C15.6425002,14.0320707 16.000603,13.430664 16.0000011,12.779416 L16.0000011,5.32301799 C16.0005806,4.6797755 15.6513768,4.08444447 15.0824602,3.75877646 Z" id="形状"></path>
          </g>
          <path d="M13.7822823,7.87982533 C13.9888197,7.7514407 14.0611262,7.46417747 13.9437836,7.23820495 C13.8264409,7.01223242 13.5638842,6.93312179 13.3573468,7.0615064 L10.0000127,9.15224303 L6.64310858,7.06197697 C6.43668997,6.93333246 6.17403702,7.01212707 6.0564568,7.23796966 C5.93887658,7.46381224 6.01089432,7.75118081 6.21731293,7.87982533 L9.62238783,9.99973722 L9.62238783,14.5294313 C9.62238782,14.6975493 9.70436377,14.8528967 9.83743613,14.9369557 C9.97050849,15.0210148 10.1344604,15.0210148 10.2675328,14.9369557 C10.4006051,14.8528967 10.4825811,14.6975493 10.4825811,14.5294313 L10.4825811,9.98091447 C10.4825811,9.96632684 10.4761296,9.95362149 10.4748393,9.93903386 L13.7822823,7.87982533 Z" id="路径" stroke="#FFFFFF" stroke-width="0.5" fill="#FFFFFF"></path>
        </g>
      </g>
    </g>
  </g>
</svg>
