<?xml version="1.0" encoding="UTF-8"?>
<svg xmlns="http://www.w3.org/2000/svg" xmlns:xlink="http://www.w3.org/1999/xlink" width="20px" height="20px" viewBox="0 0 20 20" version="1.1">
  <title>智能情报@1x</title>
  <g id="B端产品拆分线索云导航" stroke="none" stroke-width="1" fill="none" fill-rule="evenodd">
    <g id="选中icon" transform="translate(-20.000000, -170.000000)" fill-rule="nonzero">
      <g id="工具" transform="translate(8.000000, 156.000000)">
        <g id="智能情报" transform="translate(12.000000, 14.000000)">
          <g id="编组" transform="translate(2.000000, 1.000000)">
            <path d="M7.3767432,0.786079658 C7.76017504,0.567233319 8.23490251,0.567233319 8.61835484,0.786091347 L8.61835484,0.786091347 L14.7733418,4.29878227 C14.9613076,4.40638057 15.1134084,4.55816389 15.2180871,4.73662214 C15.3210186,4.9121017 15.3779675,5.11333364 15.3777789,5.32301799 L15.3777789,5.32301799 L15.3777791,12.7799911 C15.3779748,12.991661 15.319585,13.1951211 15.2143098,13.3719225 C15.1072143,13.5517808 14.9517402,13.7040107 14.760496,13.8102484 L14.760496,13.8102484 L8.60639094,17.2214834 C8.23025207,17.4302134 7.76913318,17.4302134 7.39273398,17.221339 L7.39273398,17.221339 L1.23890714,13.8102584 C1.04791616,13.7043834 0.893012576,13.5524954 0.786164493,13.3729344 C0.680757832,13.1957958 0.622223301,12.9917524 0.622223301,12.779416 L0.622223301,12.779416 L0.622222923,5.32233192 C0.621992387,5.11324959 0.678878702,4.91204348 0.781738873,4.73656747 C0.886344479,4.55811381 1.03836281,4.40631184 1.2255024,4.29909164 L1.2255024,4.29909164 Z" id="形状" stroke="#327BF9" stroke-width="1.24444444" fill="#327BF9"></path>
            <path d="M11.7822823,6.87982533 C11.9888197,6.7514407 12.0611262,6.46417747 11.9437836,6.23820495 C11.8264409,6.01223242 11.5638842,5.93312179 11.3573468,6.0615064 L8.00001266,8.15224303 L4.64310858,6.06197697 C4.43668997,5.93333246 4.17403702,6.01212707 4.0564568,6.23796966 C3.93887658,6.46381224 4.01089432,6.75118081 4.21731293,6.87982533 L7.62238783,8.99973722 L7.62238783,13.5294313 C7.62238782,13.6975493 7.70436377,13.8528967 7.83743613,13.9369557 C7.97050849,14.0210148 8.1344604,14.0210148 8.26753276,13.9369557 C8.40060512,13.8528967 8.48258107,13.6975493 8.48258106,13.5294313 L8.48258106,8.98091447 C8.48258106,8.96632684 8.47612961,8.95362149 8.47483932,8.93903386 L11.7822823,6.87982533 Z" id="路径" stroke="#FFFFFF" stroke-width="0.5" fill="#FFFFFF"></path>
          </g>
        </g>
      </g>
    </g>
  </g>
</svg>
