<?xml version="1.0" encoding="UTF-8"?>
<svg xmlns="http://www.w3.org/2000/svg" xmlns:xlink="http://www.w3.org/1999/xlink" width="20px" height="20px" viewBox="0 0 20 20" version="1.1">
  <title>智能情报@3x</title>
  <g id="数据过滤" stroke="none" stroke-width="1" fill="none" fill-rule="evenodd">
    <g id="1440-已编辑/1级标签页" transform="translate(-20.000000, -186.000000)" fill-rule="nonzero">
      <g id="智能拓客" transform="translate(0.000000, 172.000000)">
        <g id="智能情报" transform="translate(20.000000, 14.000000)">
          <rect id="矩形" fill="#111A34" opacity="0" x="0" y="0" width="20" height="20"></rect>
          <g id="编组" transform="translate(2.000000, 1.000000)" stroke="#414A64" stroke-width="1.4">
            <path d="M7.41529758,0.853629218 C7.77491647,0.648374283 8.22016109,0.648374283 8.57980302,0.853642368 L8.57980302,0.853642368 L14.734702,4.36628299 C14.9106063,4.46697685 15.0530285,4.60895189 15.1509991,4.77597413 C15.2470041,4.93964529 15.3001771,5.12732578 15.3000011,5.32301799 L15.3000011,5.32301799 L15.3000014,12.780063 C15.3001839,12.9774886 15.2456673,13.1672358 15.1474819,13.3321303 C15.0472488,13.5004639 14.9016669,13.642854 14.7227889,13.7422223 L14.7227889,13.7422223 L8.56865133,17.1534753 C8.21591014,17.3492212 7.78347511,17.3492212 7.43044104,17.1533128 L7.43044104,17.1533128 L1.27661645,13.7422334 C1.09794489,13.6431877 0.952967473,13.5011529 0.853003853,13.3331615 C0.754660709,13.1678933 0.700001079,12.977532 0.700001079,12.779416 L0.700001079,12.779416 L0.700000653,5.32224616 C0.699785619,5.12722354 0.752900096,4.93956739 0.848838451,4.77589977 C0.94674043,4.60888227 1.08908503,4.46689009 1.26407457,4.36663104 L1.26407457,4.36663104 Z" id="形状"></path>
          </g>
          <path d="M13.7822823,7.87982533 C13.9888197,7.7514407 14.0611262,7.46417747 13.9437836,7.23820495 C13.8264409,7.01223242 13.5638842,6.93312179 13.3573468,7.0615064 L10.0000127,9.15224303 L6.64310858,7.06197697 C6.43668997,6.93333246 6.17403702,7.01212707 6.0564568,7.23796966 C5.93887658,7.46381224 6.01089432,7.75118081 6.21731293,7.87982533 L9.62238783,9.99973722 L9.62238783,14.5294313 C9.62238782,14.6975493 9.70436377,14.8528967 9.83743613,14.9369557 C9.97050849,15.0210148 10.1344604,15.0210148 10.2675328,14.9369557 C10.4006051,14.8528967 10.4825811,14.6975493 10.4825811,14.5294313 L10.4825811,9.98091447 C10.4825811,9.96632684 10.4761296,9.95362149 10.4748393,9.93903386 L13.7822823,7.87982533 Z" id="路径" stroke="#327BF9" stroke-width="0.5" fill="#327BF9"></path>
        </g>
      </g>
    </g>
  </g>
</svg>
