<?xml version="1.0" encoding="UTF-8"?>
<svg xmlns="http://www.w3.org/2000/svg" xmlns:xlink="http://www.w3.org/1999/xlink" width="20px" height="20px" viewBox="0 0 20 20" version="1.1">
  <title>智能CRM@3x</title>
  <g id="数据过滤" stroke="none" stroke-width="1" fill="none" fill-rule="evenodd">
    <g id="1440-已编辑/1级标签页" transform="translate(-20.000000, -238.000000)">
      <g id="线索中心" transform="translate(0.000000, 224.000000)">
        <g id="智能CRM" transform="translate(20.000000, 14.000000)">
          <rect id="矩形" fill="#111A34" fill-rule="nonzero" opacity="0" x="0" y="0" width="20" height="20"></rect>
          <path d="M16.4821394,14.0332586 C15.8934103,14.977321 15.1041751,15.7834239 14.1741167,16.3921131 C12.9745951,17.1771563 11.540547,17.6333333 10,17.6333333 C8.459453,17.6333333 7.0254049,17.1771563 5.82588325,16.3921131 C4.89582487,15.7834239 4.10658974,14.977321 3.51786063,14.0332586 L3.51786063,14.0332586 Z M10,2.36666667 C11.5405639,2.36666667 12.9746265,2.82285375 14.1741562,3.60791268 C15.1042284,4.21661917 15.8934711,5.02274601 16.4821982,5.96683571 L16.4821982,5.96683571 L3.51780185,5.96683571 C4.10652888,5.02274601 4.8957716,4.21661917 5.8258438,3.60791268 C7.02537345,2.82285375 8.45943611,2.36666667 10,2.36666667 Z" id="形状结合" stroke="#414A64" stroke-width="1.4"></path>
          <path d="M1.66666667,10.0174825 C1.66666667,10.7887113 1.89222222,11.3961039 2.34222222,11.8386613 C2.79222222,12.2792208 3.41111111,12.5 4.19777778,12.5 C4.83333333,12.5 5.35555556,12.3361638 5.76222222,12.0104895 C6.16888889,11.6848152 6.42222222,11.2612388 6.52111111,10.7407592 L5.37222222,10.7407592 C5.29666667,10.9865135 5.20111111,11.1723277 5.08666667,11.2952048 C4.87888889,11.523976 4.57666667,11.6388611 4.18,11.6388611 C3.80998881,11.6452666 3.45738905,11.4978142 3.22444444,11.2392607 C2.97333333,10.9715285 2.84777778,10.5699301 2.84777778,10.0344655 C2.84777778,9.499001 2.96666667,9.08441558 3.20444444,8.79170829 C3.44222222,8.499001 3.76666667,8.35214785 4.17777778,8.35214785 C4.58222222,8.35214785 4.88777778,8.45604396 5.09333333,8.66383616 C5.20888889,8.77972028 5.30222222,8.95254745 5.37666667,9.18231768 L6.53222222,9.18231768 C6.51444444,8.88361638 6.38888889,8.58691309 6.15333333,8.29120879 C5.72777778,7.76373626 5.05444444,7.5 4.13444444,7.5 C3.44666667,7.5 2.88,7.6968032 2.43444444,8.09040959 C1.92222222,8.54195804 1.66666667,9.18431568 1.66666667,10.0174825 Z M9.88555556,8.42107892 C10.1233333,8.42107892 10.3022222,8.44805195 10.4211111,8.504995 C10.6311111,8.6048951 10.7377778,8.7987013 10.7377778,9.08841159 C10.7377778,9.35614386 10.6288889,9.53496503 10.41,9.62587413 C10.2866667,9.67782218 10.1022222,9.7037962 9.85444444,9.7037962 L8.61,9.7037962 L8.61,8.42107892 L9.88555556,8.42107892 L9.88555556,8.42107892 Z M10.1255556,7.59090909 L7.48111111,7.59090909 L7.48111111,12.3671329 L8.61,12.3671329 L8.61,10.494006 L9.73888889,10.494006 C10.0611111,10.494006 10.28,10.544955 10.3966667,10.6468531 C10.5133333,10.7487512 10.5744444,10.9515485 10.5788889,11.2552448 L10.5877778,11.6988012 C10.5910392,11.9255795 10.6326254,12.1505942 10.7111111,12.3661339 L11.9844444,12.3661339 L11.9844444,12.2472527 C11.8732179,12.1886386 11.7957806,12.0894882 11.7722222,11.9755245 C11.7467346,11.8285135 11.7366904,11.6796722 11.7422222,11.530969 L11.7422222,11.2112887 C11.7422222,10.8756244 11.69,10.6268731 11.5833333,10.464036 C11.4766667,10.3011988 11.2955556,10.1753247 11.0422222,10.0864136 C11.3455556,9.9955045 11.5655556,9.84065934 11.6977778,9.62087912 C11.8262944,9.41655378 11.8951042,9.18627113 11.8977778,8.95154845 C11.8977778,8.76373626 11.8633333,8.5969031 11.7955556,8.44905095 C11.7266003,8.30285947 11.632486,8.16733551 11.5166667,8.04745255 C11.3755159,7.9008713 11.1976767,7.78651355 10.9977778,7.71378621 C10.7944444,7.63886114 10.5033333,7.5979021 10.1255556,7.59090909 L10.1255556,7.59090909 Z M15.6722222,11.3471528 L14.6655556,7.59090909 L12.9833333,7.59090909 L12.9833333,12.3671329 L14.06,12.3671329 L14.06,9.13736264 C14.06,9.04345654 14.06,8.91358641 14.0577778,8.74575425 L14.0533333,8.35814186 L15.0933333,12.3671329 L16.2177778,12.3671329 L17.2655556,8.35814186 L17.2611111,8.74575425 L17.2566667,9.13736264 L17.2566667,12.3671329 L18.3333333,12.3671329 L18.3333333,7.59090909 L16.6711111,7.59090909 L15.6722222,11.3471528 Z" id="形状" fill="#327BF9" fill-rule="nonzero"></path>
        </g>
      </g>
    </g>
  </g>
</svg>
