<?xml version="1.0" encoding="UTF-8"?>
<svg xmlns="http://www.w3.org/2000/svg" xmlns:xlink="http://www.w3.org/1999/xlink" width="20px" height="20px" viewBox="0 0 20 20" version="1.1">
  <title>智能情报@1x</title>
  <g id="B端产品拆分线索云导航" stroke="none" stroke-width="1" fill="none" fill-rule="evenodd">
    <g id="默认icon" transform="translate(-20.000000, -174.000000)" fill-rule="nonzero">
      <g id="工具" transform="translate(0.000000, 160.000000)">
        <g id="智能情报" transform="translate(20.000000, 14.000000)">
          <path d="M9.3767432,1.78607966 C9.76017504,1.56723332 10.2349025,1.56723332 10.6183548,1.78609135 L10.6183548,1.78609135 L16.7733418,5.29878227 C16.9613076,5.40638057 17.1134084,5.55816389 17.2180871,5.73662214 C17.3210186,5.9121017 17.3779675,6.11333364 17.3777789,6.32301799 L17.3777789,6.32301799 L17.3777791,13.7799911 C17.3779748,13.991661 17.319585,14.1951211 17.2143098,14.3719225 C17.1072143,14.5517808 16.9517402,14.7040107 16.760496,14.8102484 L16.760496,14.8102484 L10.6063909,18.2214834 C10.2302521,18.4302134 9.76913318,18.4302134 9.39273398,18.221339 L9.39273398,18.221339 L3.23890714,14.8102584 C3.04791616,14.7043834 2.89301258,14.5524954 2.78616449,14.3729344 C2.68075783,14.1957958 2.6222233,13.9917524 2.6222233,13.779416 L2.6222233,13.779416 L2.62222292,6.32233192 C2.62199239,6.11324959 2.6788787,5.91204348 2.78173887,5.73656747 C2.88634448,5.55811381 3.03836281,5.40631184 3.2255024,5.29909164 L3.2255024,5.29909164 Z" id="形状" stroke="#414A64" stroke-width="1.24444444"></path>
          <path d="M13.7822823,7.87982533 C13.9888197,7.7514407 14.0611262,7.46417747 13.9437836,7.23820495 C13.8264409,7.01223242 13.5638842,6.93312179 13.3573468,7.0615064 L10.0000127,9.15224303 L6.64310858,7.06197697 C6.43668997,6.93333246 6.17403702,7.01212707 6.0564568,7.23796966 C5.93887658,7.46381224 6.01089432,7.75118081 6.21731293,7.87982533 L9.62238783,9.99973722 L9.62238783,14.5294313 C9.62238782,14.6975493 9.70436377,14.8528967 9.83743613,14.9369557 C9.97050849,15.0210148 10.1344604,15.0210148 10.2675328,14.9369557 C10.4006051,14.8528967 10.4825811,14.6975493 10.4825811,14.5294313 L10.4825811,9.98091447 C10.4825811,9.96632684 10.4761296,9.95362149 10.4748393,9.93903386 L13.7822823,7.87982533 Z" id="路径" stroke="#327BF9" stroke-width="0.5" fill="#327BF9"></path>
        </g>
      </g>
    </g>
  </g>
</svg>
