<?xml version="1.0" encoding="UTF-8"?>
<svg xmlns="http://www.w3.org/2000/svg" xmlns:xlink="http://www.w3.org/1999/xlink" width="20px" height="20px" viewBox="0 0 20 20" version="1.1">
  <title>管理@1x</title>
  <g id="B端产品拆分线索云导航" stroke="none" stroke-width="1" fill="none" fill-rule="evenodd">
    <g id="默认icon" transform="translate(-20.000000, -122.000000)">
      <g id="管理" transform="translate(0.000000, 108.000000)">
        <g transform="translate(20.000000, 14.000000)" id="报表中心">
          <g transform="translate(2.000000, 2.600000)">
            <path d="M0.728582198,0.571428571 L15.2681663,0.571428571 C15.6026854,0.571428571 15.8738922,0.811542698 15.8739823,1.10779101 L15.8751332,5.93638105 C15.8752973,6.23274323 15.6039645,6.4730348 15.2693172,6.4730348 L0.729733006,6.4730348 C0.395214252,6.4730348 0.12400735,6.23292077 0.123916606,5.93667218 L0.122766193,1.10808227 C0.122766193,0.811720274 0.393935074,0.571428571 0.728582198,0.571428571 Z" id="server" stroke="#414A64" stroke-width="1.20605316"></path>
            <path d="M0.616668571,9.03811236 L15.3846668,9.03811236 C15.7245056,9.03811236 16,9.31526973 16,9.65715998 L16,14.2380952 C16,14.5799855 15.7245056,14.8571429 15.3846668,14.8571429 L0.616669012,14.8571429 C0.276829864,14.8571429 0.00133535967,14.5799855 0.00133535967,14.2380952 L0.00133535967,9.65715998 C0.00133535967,9.31526914 0.27682946,9.03811236 0.616668571,9.03811236 Z" id="server" stroke="#414A64" stroke-width="1.20605316"></path>
            <path d="M6.76849845,12.0714286 L6.76849845,10.8333333 L3.07649927,10.8333333 L3.07649927,12.0714286 L6.76849845,12.0714286 Z" id="server" fill="#327BF9" fill-rule="nonzero"></path>
            <path d="M3.07636577,4.02380952 L3.07636577,2.78571429 L6.76836524,2.78571429 L6.76836524,4.02380952 L3.07636577,4.02380952 Z" id="server" fill="#327BF9" fill-rule="nonzero"></path>
          </g>
        </g>
      </g>
    </g>
  </g>
</svg>
