<?xml version="1.0" encoding="UTF-8"?>
<svg xmlns="http://www.w3.org/2000/svg" xmlns:xlink="http://www.w3.org/1999/xlink" width="20px" height="20px" viewBox="0 0 20 20" version="1.1">
  <title>线索中心</title>
  <g id="数据过滤" stroke="none" stroke-width="1" fill="none" fill-rule="evenodd">
    <g id="1440-已编辑/1级标签页" transform="translate(-20.000000, -134.000000)">
      <g id="线索中心" transform="translate(0.000000, 120.000000)">
        <g id="线索中心" transform="translate(20.000000, 14.000000)">
          <rect id="矩形" x="0" y="0" width="20" height="20"></rect>
          <g id="编组-3" transform="translate(2.000000, 2.000000)" stroke-width="1.4">
            <rect id="矩形" stroke="#414A64" x="0.7" y="0.7" width="14.6" height="14.6" rx="1.77777778"></rect>
            <path d="M10.2921586,7.10806843 C10.7681144,7.22402054 11.1934149,7.46931922 11.5287145,7.80461881 C12.0052541,8.28115841 12.3,8.93949175 12.3,9.66666667 C12.3,10.3938416 12.0052541,11.0521749 11.5287145,11.5287145 C11.0521749,12.0052541 10.3938416,12.3 9.66666667,12.3 C8.93949175,12.3 8.28115841,12.0052541 7.80461881,11.5287145 C7.46405471,11.1881504 7.21633991,10.754737 7.10289001,10.2697096 C7.93828263,10.091063 8.6583908,9.6885828 9.20744019,9.1395334 C9.7585884,8.5883852 10.1394449,7.88819555 10.2921586,7.10806843 Z M6.33333333,3.7 C7.03429095,3.7 7.67130238,3.97384951 8.14314246,4.42046188 C8.47656608,4.73605847 8.72764847,5.13787137 8.86033119,5.59022792 C8.09046641,5.80012333 7.39923228,6.20648942 6.85697093,6.75036028 C6.30403753,7.30493486 5.90570822,8.00139127 5.73134133,8.77872086 C5.24862772,8.71419002 4.81670091,8.49769162 4.47764672,8.17771385 C3.995098,7.72231507 3.7,7.0616231 3.7,6.33333333 C3.7,5.60615841 3.99474587,4.94782508 4.47128548,4.47128548 C4.94782508,3.99474587 5.60615841,3.7 6.33333333,3.7 Z" id="形状结合" stroke="#327BF9"></path>
          </g>
        </g>
      </g>
    </g>
  </g>
</svg>
