<?xml version="1.0" encoding="UTF-8"?>
<svg xmlns="http://www.w3.org/2000/svg" xmlns:xlink="http://www.w3.org/1999/xlink" width="20px" height="20px" viewBox="0 0 20 20" version="1.1">
  <title>工作台@3x</title>
  <g id="数据过滤" stroke="none" stroke-width="1" fill="none" fill-rule="evenodd">
    <g id="1440-已编辑/1级标签页" transform="translate(-20.000000, -82.000000)">
      <g id="3.Navigation导航/4.Menu-导航菜单/基础控件/左侧导航/一级选中" transform="translate(0.000000, 68.000000)">
        <g id="工作台" transform="translate(20.000000, 14.000000)">
          <rect id="矩形" fill="#333333" fill-rule="nonzero" opacity="0" x="0" y="0" width="20" height="20"></rect>
          <path d="M9.99998124,2.69222965 L18.0180013,8.91339582 C18.1343609,9.00584401 18.2022327,9.1367042 18.2179026,9.27354224 C18.2335725,9.41038029 18.1970404,9.5531962 18.1045922,9.66955582 C18.0024956,9.7980594 17.8473413,9.87295155 17.683593,9.87295165 L17.683593,9.87295165 L15.2129618,9.8716236 L15.2133668,17.3 L4.78650498,17.3 L4.78594743,9.87162341 L2.31674575,9.87295155 C2.16813138,9.87295155 2.03358632,9.81271368 1.93619485,9.71532221 C1.83880338,9.61793074 1.7785655,9.48338568 1.7785655,9.33477131 C1.7785655,9.1706467 1.85345765,9.01549243 1.98196123,8.91339582 L1.98196123,8.91339582 L9.66519673,2.8090344 C9.76320736,2.73116456 9.8815943,2.69222965 9.99998124,2.69222965 L9.99998124,2.69222965 Z" id="形状结合" stroke="#414A64" stroke-width="1.4"></path>
          <rect id="矩形" fill="#327BF9" transform="translate(10.000000, 12.200000) rotate(90.000000) translate(-10.000000, -12.200000) " x="7.5" y="11.5" width="5" height="1.4" rx="0.7"></rect>
        </g>
      </g>
    </g>
  </g>
</svg>
